<svg width="20" height="14" viewBox="0 0 20 14" fill="none" xmlns="http://www.w3.org/2000/svg">
  <rect width="20" height="14" rx="2" fill="white"/>
  <path d="M0 1.08H20V2.15H0V1.08ZM0 3.23H20V4.31H0V3.23ZM0 5.38H20V6.46H0V5.38ZM0 7.54H20V8.62H0V7.54ZM0 9.69H20V10.77H0V9.69ZM0 11.85H20V12.92H0V11.85Z" fill="#D22F27"/>
  <path d="M0 0H9V7.54H0V0Z" fill="#23438C"/>
  <circle cx="1.45" cy="1.25" r="0.34" fill="white"/>
  <circle cx="3.05" cy="1.25" r="0.34" fill="white"/>
  <circle cx="4.65" cy="1.25" r="0.34" fill="white"/>
  <circle cx="6.25" cy="1.25" r="0.34" fill="white"/>
  <circle cx="7.85" cy="1.25" r="0.34" fill="white"/>
  <circle cx="2.25" cy="2.4" r="0.34" fill="white"/>
  <circle cx="3.85" cy="2.4" r="0.34" fill="white"/>
  <circle cx="5.45" cy="2.4" r="0.34" fill="white"/>
  <circle cx="7.05" cy="2.4" r="0.34" fill="white"/>
  <circle cx="1.45" cy="3.55" r="0.34" fill="white"/>
  <circle cx="3.05" cy="3.55" r="0.34" fill="white"/>
  <circle cx="4.65" cy="3.55" r="0.34" fill="white"/>
  <circle cx="6.25" cy="3.55" r="0.34" fill="white"/>
  <circle cx="7.85" cy="3.55" r="0.34" fill="white"/>
  <circle cx="2.25" cy="4.7" r="0.34" fill="white"/>
  <circle cx="3.85" cy="4.7" r="0.34" fill="white"/>
  <circle cx="5.45" cy="4.7" r="0.34" fill="white"/>
  <circle cx="7.05" cy="4.7" r="0.34" fill="white"/>
  <circle cx="1.45" cy="5.85" r="0.34" fill="white"/>
  <circle cx="3.05" cy="5.85" r="0.34" fill="white"/>
  <circle cx="4.65" cy="5.85" r="0.34" fill="white"/>
  <circle cx="6.25" cy="5.85" r="0.34" fill="white"/>
  <circle cx="7.85" cy="5.85" r="0.34" fill="white"/>
</svg>
