<svg xmlns="http://www.w3.org/2000/svg" width="120" height="120" viewBox="0 0 320 320" fill="none">
<path d="M159.996 0C178.931 0.000109267 194.281 15.3507 194.281 34.2861C194.281 49.2145 184.739 61.9116 171.423 66.6182V92.375C182.215 94.1844 192.153 98.515 200.609 104.74L220.507 83.4004C218.35 78.9121 217.142 73.8818 217.142 68.5693C217.142 49.634 232.493 34.2842 251.428 34.2842C270.363 34.2844 285.713 49.6342 285.713 68.5693C285.713 87.5047 270.363 102.855 251.428 102.855C245.698 102.855 240.298 101.448 235.551 98.9629L215.802 120.143C221.734 128.433 225.867 138.099 227.624 148.572H253.382C258.088 135.255 270.786 125.712 285.715 125.712C304.65 125.712 320 141.063 320 159.998C320 178.934 304.65 194.284 285.715 194.284C270.788 194.284 258.093 184.744 253.385 171.43H227.624C225.867 181.902 221.734 191.566 215.802 199.856L235.55 221.037C240.297 218.552 245.698 217.145 251.428 217.145C270.363 217.145 285.713 232.495 285.713 251.431C285.713 270.366 270.363 285.717 251.428 285.717C232.492 285.717 217.142 270.366 217.142 251.431C217.142 246.118 218.35 241.087 220.507 236.599L200.608 215.259C192.152 221.484 182.215 225.815 171.423 227.624V253.381C184.74 258.087 194.281 270.786 194.281 285.715C194.281 304.65 178.931 320 159.996 320C141.061 320 125.711 304.65 125.711 285.715C125.711 270.787 135.251 258.089 148.566 253.382V227.621C137.778 225.81 127.845 221.479 119.391 215.255L99.4912 236.597C101.649 241.086 102.858 246.117 102.858 251.431C102.858 270.366 87.5085 285.717 68.5732 285.717C49.638 285.717 34.2881 270.366 34.2881 251.431C34.2881 232.495 49.638 217.145 68.5732 217.145C74.3016 217.145 79.7009 218.551 84.4473 221.035L104.198 199.853C98.2681 191.564 94.1366 181.9 92.3799 171.43H66.6162C61.9085 184.744 49.2118 194.284 34.2852 194.284C15.35 194.284 0 178.934 0 159.998C1.0308e-05 141.063 15.35 125.712 34.2852 125.712C49.214 125.712 61.9121 135.255 66.6182 148.572H92.3799C94.1363 138.102 98.2671 128.437 104.197 120.147L84.4463 98.9639C79.7 101.448 74.3014 102.855 68.5732 102.855C49.638 102.855 34.2881 87.5049 34.2881 68.5693C34.2883 49.634 49.6381 34.2842 68.5732 34.2842C87.5084 34.2842 102.858 49.634 102.858 68.5693C102.858 73.8831 101.649 78.9142 99.4912 83.4033L119.39 104.744C127.844 98.5199 137.778 94.1892 148.566 92.3779V66.6172C135.251 61.9099 125.711 49.2135 125.711 34.2861C125.711 15.3506 141.061 0 159.996 0Z" fill="url(#paint0_linear_1_195)"/>
<defs>
<linearGradient id="paint0_linear_1_195" x1="160" y1="0" x2="160" y2="320" gradientUnits="userSpaceOnUse">
<stop stop-color="#38BCFF"/>
<stop offset="0.25" stop-color="#20A4FE"/>
<stop offset="0.5" stop-color="#1991FA"/>
<stop offset="0.75" stop-color="#0B82F9"/>
<stop offset="1" stop-color="#016FF4"/>
</linearGradient>
</defs>
</svg>