<svg xmlns="http://www.w3.org/2000/svg" width="284" height="147.91666666666669" viewBox="0 0 192 100" fill="none">
<path d="M39.8789 16.5713C42.9897 16.5714 45.5117 19.0933 45.5117 22.2041C45.5117 24.6565 43.9435 26.7414 41.7559 27.5146V31.75C43.5284 32.0472 45.1601 32.7583 46.5488 33.7803L49.8193 30.2725C49.465 29.5351 49.2666 28.7087 49.2666 27.8359C49.2668 24.7254 51.7889 22.2042 54.8994 22.2041C58.0101 22.2041 60.532 24.7253 60.5322 27.8359C60.5322 30.9468 58.0102 33.4688 54.8994 33.4688C53.9583 33.4687 53.0718 33.2363 52.292 32.8281L49.0439 36.3115C50.0179 37.6729 50.6977 39.2594 50.9863 40.9795H55.2217C55.9949 38.7919 58.08 37.2238 60.5322 37.2236C63.6429 37.2236 66.1649 39.7457 66.165 42.8564C66.165 45.9673 63.643 48.4893 60.5322 48.4893C58.0802 48.4891 55.9961 46.9216 55.2227 44.7344H50.9863C50.6977 46.4548 50.0172 48.041 49.043 49.4023L52.291 52.8848C53.0709 52.4765 53.9581 52.2452 54.8994 52.2451C58.0102 52.2451 60.5322 54.7671 60.5322 57.8779C60.5321 60.9887 58.0102 63.5107 54.8994 63.5107C51.7888 63.5106 49.2667 60.9886 49.2666 57.8779C49.2666 57.0049 49.4648 56.178 49.8193 55.4404L46.5479 51.9326C45.1593 52.9542 43.5282 53.6657 41.7559 53.9629V58.1982C43.9436 58.9714 45.5116 61.0573 45.5117 63.5098C45.5117 66.6206 42.9897 69.1425 39.8789 69.1426C36.7681 69.1426 34.2461 66.6206 34.2461 63.5098C34.2462 61.0575 35.8136 58.9715 38.001 58.1982V53.9629C36.2289 53.6653 34.5982 52.9535 33.21 51.9316L29.9385 55.4404C30.2931 56.1781 30.4922 57.0047 30.4922 57.8779C30.4921 60.9887 27.9701 63.5107 24.8594 63.5107C21.7486 63.5107 19.2267 60.9887 19.2266 57.8779C19.2266 54.7671 21.7486 52.2451 24.8594 52.2451C25.8004 52.2451 26.6871 52.4767 27.4668 52.8848L30.7139 49.4014C29.7405 48.0404 29.062 46.4539 28.7734 44.7344H24.5371C23.7637 46.9217 21.6787 48.4892 19.2266 48.4893C16.1158 48.4893 13.5938 45.9673 13.5938 42.8564C13.5939 39.7457 16.1158 37.2236 19.2266 37.2236C21.6789 37.2237 23.7639 38.7919 24.5371 40.9795H28.7734C29.062 39.2601 29.7406 37.6736 30.7139 36.3125L27.4658 32.8281C26.6862 33.236 25.8002 33.4687 24.8594 33.4688C21.7486 33.4688 19.2266 30.9468 19.2266 27.8359C19.2268 24.7253 21.7487 22.2041 24.8594 22.2041C27.97 22.2041 30.492 24.7253 30.4922 27.8359C30.4922 28.7088 30.2929 29.535 29.9385 30.2725L33.209 33.7803C34.5972 32.7583 36.2289 32.0476 38.001 31.75V27.5146C35.8137 26.7412 34.2462 24.6563 34.2461 22.2041C34.2461 19.0933 36.7681 16.5713 39.8789 16.5713Z" fill="url(#paint0_linear_706_2353)"/>
<path d="M81.7734 24.457C82.4991 24.4572 83.0869 25.0458 83.0869 25.7715V53.2334C83.087 53.7835 83.2689 54.3182 83.6035 54.7549C84.3138 55.6816 85.4154 56.2256 86.583 56.2256H92.2871C93.013 56.2256 93.6016 55.637 93.6016 54.9111V25.7715C93.6016 25.0456 94.1902 24.457 94.916 24.457H97.5449C98.2706 24.4573 98.8584 25.0458 98.8584 25.7715V56.2256H105.878C107.045 56.2255 108.146 55.6815 108.856 54.7549C109.191 54.3182 109.373 53.7836 109.373 53.2334V25.7715C109.373 25.0458 109.961 24.4573 110.687 24.457H113.315C114.041 24.457 114.63 25.0339 114.63 25.7598C114.63 30.6556 114.63 48.1077 114.63 56.6562C114.63 58.2469 114.204 59.7162 112.987 60.5986C112.002 61.3132 111.022 61.2559 109.701 61.2559H82.7588C81.4377 61.2559 80.4584 61.3132 79.4727 60.5986C78.2556 59.7162 77.8301 58.2469 77.8301 56.6562C77.83 48.1077 77.8301 30.6556 77.8301 25.7598C77.8301 25.0339 78.4187 24.457 79.1445 24.457H81.7734Z" fill="url(#paint1_linear_706_2353)"/>
<path d="M146.172 25.1142V29.0529C146.172 29.4158 145.878 29.71 145.515 29.71H128.699C127.811 29.71 126.957 30.0572 126.321 30.6775C125.664 31.3186 125.293 32.198 125.293 33.1164V40.2167C125.293 40.5796 125.587 40.8739 125.95 40.8739H142.821C143.184 40.8739 143.478 41.1681 143.478 41.531V45.4703C143.478 45.8332 143.184 46.1274 142.821 46.1274H125.95C125.587 46.1274 125.293 46.4216 125.293 46.7845V52.6379C125.293 53.5156 125.638 54.3581 126.255 54.9831C126.882 55.6195 127.739 55.9778 128.633 55.9778H144.858C145.584 55.9778 146.172 56.5662 146.172 57.2921L146.172 60.5747C146.172 60.9377 145.889 61.2319 145.526 61.2319L125.275 61.2314C123.321 61.2314 122.438 61.4561 121.234 60.5752C119.887 59.5903 119.887 57.2249 119.887 55.6505V55.65C119.887 46.1026 119.905 33.9028 119.905 30.3667C119.905 28.5986 119.687 27.4051 120.771 26.225C121.954 24.9366 123.465 24.457 125.389 24.457C132.063 24.4573 142.786 24.4571 145.521 24.457C145.884 24.457 146.172 24.7513 146.172 25.1142Z" fill="url(#paint2_linear_706_2353)"/>
<path d="M152.744 61.257C152.018 61.257 151.43 60.6686 151.43 59.9427V56.9098C151.43 56.1839 152.018 55.5955 152.744 55.5955H169.246C170.697 55.5955 171.874 54.4186 171.874 52.9669V49.0746C171.874 47.9858 170.991 47.1032 169.903 47.1032H159.315C154.96 47.1032 151.43 43.5726 151.43 39.2175V33.5767C151.43 31.3511 152.244 29.2024 153.718 27.5352C155.449 25.5779 157.936 24.457 160.549 24.457H176.401C177.127 24.457 177.715 25.0455 177.715 25.7713V28.8081C177.715 29.534 177.127 30.1225 176.401 30.1224L159.9 30.1191C158.448 30.1188 157.271 31.2957 157.271 32.7477V38.8131C157.271 40.2648 158.448 41.4416 159.9 41.4416H172.458C175.362 41.4416 177.715 43.7954 177.715 46.6988V52.6565C177.715 54.5617 177.083 56.4131 175.917 57.9199C174.288 60.0248 171.776 61.257 169.115 61.257H152.744Z" fill="url(#paint3_linear_706_2353)"/>
<path d="M100.993 71.4629V85.7142H97.0737V79.4792H94.1342V85.7142H90.2148V71.4629H94.1342V76.8071H97.0737V71.4629H100.993Z" fill="#444444"/>
<path d="M108.234 82.8554H111.37V71.4368H115.289V82.1253C115.289 82.1253 115.319 82.7549 115.289 83.016C115.26 83.277 115.181 83.4725 115.063 83.7335C114.945 83.9889 114.767 84.2358 114.531 84.4742C114.294 84.7126 113.972 84.9226 113.564 85.1042C113.156 85.2858 112.647 85.4305 112.038 85.5384C111.429 85.6519 110.689 85.7086 109.82 85.7086C108.962 85.7086 108.035 85.6519 107.432 85.5384C106.828 85.4305 106.326 85.2858 105.924 85.1042C105.527 84.9226 105.214 84.7126 104.983 84.4742C104.758 84.2358 104.587 83.9889 104.469 83.7335C104.356 83.4725 104.344 83.277 104.315 83.016C104.291 82.7549 104.315 82.1253 104.315 82.1253V71.4368L108.234 71.4285V82.8554Z" fill="#444444"/>
<path d="M129.501 81.0983C129.501 81.4558 129.492 81.802 129.474 82.1369C129.462 82.4718 129.409 82.7839 129.314 83.0734C129.226 83.3628 129.081 83.6267 128.88 83.8651C128.678 84.1035 128.327 84.4351 127.998 84.6383C127.64 84.86 127.148 85.1134 126.555 85.3209C125.919 85.5435 125.255 85.7087 124.863 85.7087L118.588 85.6785V71.4356H124.612C125.381 71.4356 126.029 71.4839 126.555 71.5804C127.082 71.6768 127.513 71.8102 127.85 71.9805C128.193 72.1508 128.457 72.3494 128.64 72.5764C128.823 72.8034 128.956 73.0447 129.039 73.3001C129.128 73.5555 129.178 73.8222 129.19 74.1003C129.208 74.3727 129.217 74.6395 129.217 74.9006C129.217 75.2695 129.181 75.5873 129.11 75.8541C129.039 76.1151 128.948 76.3393 128.835 76.5266C128.723 76.7082 128.593 76.8586 128.445 76.9778C128.297 77.097 128.149 77.1963 128.001 77.2758C127.646 77.4631 127.244 77.5738 126.795 77.6078C127.315 77.6419 127.776 77.7639 128.179 77.9739C128.356 78.0647 128.525 78.181 128.684 78.3229C128.844 78.4591 128.983 78.6464 129.101 78.8848C129.226 79.1232 129.323 79.4211 129.394 79.7787C129.465 80.1306 129.501 80.5704 129.501 81.0983ZM122.479 82.9967L125.418 83.0148V78.5613H122.479V82.9967ZM122.479 76.7799H125.418V73.2171H122.479V76.7799Z" fill="#444444"/>
<path fill-rule="evenodd" clip-rule="evenodd" d="M157.526 85.7142C156.751 85.6514 156.339 85.585 155.764 85.4886C155.195 85.3922 154.706 85.2561 154.297 85.0803C153.894 84.8988 153.565 84.6805 153.31 84.4253C153.055 84.1645 152.853 83.8725 152.705 83.5492C152.563 83.226 152.465 82.8745 152.412 82.4945C152.358 82.1089 152.332 81.7007 152.332 81.2697V76.3363C152.332 75.9564 152.355 75.5736 152.403 75.188C152.45 74.7968 152.542 74.4197 152.678 74.0568C152.815 73.6939 153.007 73.3536 153.256 73.0361C153.505 72.7129 153.831 72.4322 154.234 72.194C154.643 71.9558 155.138 71.7687 155.719 71.6326C156.3 71.4965 156.991 71.4285 157.791 71.4285C158.632 71.4285 159.338 71.4937 159.907 71.6241C160.482 71.7545 160.953 71.9275 161.32 72.143C161.688 72.3585 161.967 72.608 162.156 72.8915C162.352 73.1693 162.491 73.4585 162.574 73.7591C162.663 74.0539 162.71 74.3516 162.716 74.6522C162.728 74.947 162.734 75.2164 162.734 75.4602H158.84V73.7591H156.751V76.2258H157.889C158.979 76.2258 159.871 76.3136 160.565 76.4894C161.264 76.6595 161.812 76.9317 162.21 77.306C162.613 77.6746 162.888 78.1537 163.036 78.7435C163.191 79.3275 163.268 80.0335 163.268 80.8614C163.268 81.3661 163.241 81.8339 163.188 82.2649C163.134 82.6958 163.033 83.0899 162.885 83.4472C162.743 83.7987 162.544 84.1106 162.29 84.3828C162.035 84.655 161.703 84.8847 161.294 85.0718C160.891 85.2532 160.563 85.3922 159.988 85.4886C159.413 85.585 158.308 85.7142 157.526 85.7142ZM158.849 83.2941H156.751V78.5223H158.849V83.2941Z" fill="#444444"/>
<path d="M138.43 76.617C138.43 75.7607 138.495 75.0094 138.625 74.363C138.756 73.7109 139.011 73.1693 139.39 72.7384C139.769 72.3017 140.306 71.9757 140.999 71.7602C141.693 71.539 142.6 71.4285 143.72 71.4285C144.502 71.4285 145.181 71.4823 145.756 71.5901C146.331 71.6921 146.82 71.8396 147.223 72.0324C147.632 72.2252 147.961 72.4577 148.21 72.7299C148.465 72.9964 148.663 73.2941 148.805 73.623C148.954 73.9462 149.051 74.2949 149.099 74.6692C149.152 75.0434 149.179 75.4319 149.179 75.8345C149.179 76.1634 149.137 76.4526 149.054 76.7021C148.977 76.9516 148.877 77.1699 148.752 77.357C148.628 77.5441 148.491 77.7001 148.343 77.8248C148.201 77.9496 148.067 78.0516 147.943 78.131C147.819 78.2104 147.712 78.2671 147.623 78.3011C147.534 78.3352 147.487 78.355 147.481 78.3607C147.487 78.3664 147.534 78.3862 147.623 78.4202C147.712 78.4543 147.819 78.5081 147.943 78.5818C148.067 78.6556 148.201 78.7548 148.343 78.8795C148.491 79.0043 148.628 79.1602 148.752 79.3474C148.877 79.5345 148.977 79.7556 149.054 80.0108C149.137 80.2603 149.179 80.5524 149.179 80.8869C149.179 81.3009 149.152 81.7063 149.099 82.1032C149.051 82.5002 148.954 82.8773 148.805 83.2345C148.663 83.5861 148.465 83.9121 148.21 84.2127C147.961 84.5075 147.632 84.7627 147.223 84.9782C146.82 85.1937 146.331 85.361 145.756 85.48C145.181 85.5991 144.521 85.7142 143.738 85.7142C142.618 85.7142 141.693 85.5396 140.999 85.3014C140.306 85.0576 139.769 84.7003 139.39 84.2297C139.011 83.759 138.756 83.1806 138.625 82.4945C138.495 81.8027 138.43 81.006 138.43 80.1044L142.848 80.1129V83.3196H144.76V79.3133H142.155V77.408H144.76V73.7846H142.848V76.617H138.43Z" fill="#444444"/>
<path fill-rule="evenodd" clip-rule="evenodd" d="M172.299 85.7142C171.427 85.7142 170.671 85.6161 170.06 85.5141C169.45 85.412 168.94 85.2759 168.531 85.1058C168.122 84.9357 167.799 84.7372 167.562 84.5104C167.331 84.2836 167.156 84.0482 167.037 83.8044C166.925 83.5606 166.854 83.3139 166.824 83.0644C166.794 82.8092 166.78 82.5682 166.78 82.3414V74.7712C166.78 74.5444 166.794 74.3063 166.824 74.0568C166.854 73.8016 166.925 73.5521 167.037 73.3082C167.156 73.0587 167.331 72.8234 167.562 72.6023C167.799 72.3754 168.122 72.177 168.531 72.0069C168.94 71.8367 169.45 71.7006 170.06 71.5986C170.671 71.4965 171.427 71.4285 172.299 71.4285C173.17 71.4285 173.892 71.4965 174.497 71.5986C175.107 71.7006 175.614 71.8367 176.017 72.0069C176.42 72.177 176.734 72.3754 176.96 72.6023C177.185 72.8234 177.354 73.0587 177.466 73.3082C177.579 73.5521 177.647 73.8016 177.671 74.0568C177.701 74.3063 177.715 74.5444 177.715 74.7712V82.3414C177.715 82.5682 177.701 82.8092 177.671 83.0644C177.647 83.3139 177.579 83.5606 177.466 83.8044C177.354 84.0482 177.185 84.2836 176.96 84.5104C176.734 84.7372 176.42 84.9357 176.017 85.1058C175.614 85.2759 175.107 85.412 174.497 85.5141C173.892 85.6161 173.17 85.7142 172.299 85.7142ZM173.297 83.3196H171.198V73.7846H173.297V83.3196Z" fill="#444444"/>
<defs>
<linearGradient id="paint0_linear_706_2353" x1="39.8795" y1="16.5713" x2="39.8795" y2="69.1427" gradientUnits="userSpaceOnUse">
<stop stop-color="#38BCFF"/>
<stop offset="0.25" stop-color="#20A4FE"/>
<stop offset="0.5" stop-color="#1991FA"/>
<stop offset="0.75" stop-color="#0B82F9"/>
<stop offset="1" stop-color="#016FF4"/>
</linearGradient>
<linearGradient id="paint1_linear_706_2353" x1="96.2301" y1="24.457" x2="96.2301" y2="61.257" gradientUnits="userSpaceOnUse">
<stop stop-color="#38BCFF"/>
<stop offset="0.25" stop-color="#20A4FE"/>
<stop offset="0.5" stop-color="#1991FA"/>
<stop offset="0.75" stop-color="#0B82F9"/>
<stop offset="1" stop-color="#016FF4"/>
</linearGradient>
<linearGradient id="paint2_linear_706_2353" x1="133.03" y1="24.457" x2="133.03" y2="61.257" gradientUnits="userSpaceOnUse">
<stop stop-color="#38BCFF"/>
<stop offset="0.25" stop-color="#20A4FE"/>
<stop offset="0.5" stop-color="#1991FA"/>
<stop offset="0.75" stop-color="#0B82F9"/>
<stop offset="1" stop-color="#016FF4"/>
</linearGradient>
<linearGradient id="paint3_linear_706_2353" x1="164.573" y1="24.457" x2="164.573" y2="61.257" gradientUnits="userSpaceOnUse">
<stop stop-color="#38BCFF"/>
<stop offset="0.25" stop-color="#20A4FE"/>
<stop offset="0.5" stop-color="#1991FA"/>
<stop offset="0.75" stop-color="#0B82F9"/>
<stop offset="1" stop-color="#016FF4"/>
</linearGradient>
</defs>
</svg>